<svg xmlns="http://www.w3.org/2000/svg" width="120" height="140" viewBox="0 0 120 140">
  <g id="coin-logo" transform="translate(-13 -307)">
    <g id="Group_3" data-name="Group 3">
      <rect id="Rectangle_3" data-name="Rectangle 3" width="10" height="60" transform="translate(13 347)" fill="#ffd89c"/>
      <rect id="Rectangle_4" data-name="Rectangle 4" width="10" height="20" transform="translate(23 327)" fill="#ffd89c"/>
      <rect id="Rectangle_5" data-name="Rectangle 5" width="10" height="20" transform="translate(53 317) rotate(90)" fill="#ffd89c"/>
      <rect id="Rectangle_6" data-name="Rectangle 6" width="10" height="20" transform="translate(113 317) rotate(90)" fill="#ffd89c"/>
      <rect id="Rectangle_7" data-name="Rectangle 7" width="10" height="40" transform="translate(93 307) rotate(90)" fill="#ffd89c"/>
      <rect id="Rectangle_8" data-name="Rectangle 8" width="10" height="20" transform="translate(113 327)" fill="#ffd89c"/>
      <rect id="Rectangle_9" data-name="Rectangle 9" width="10" height="60" transform="translate(123 347)" fill="#ffd89c"/>
      <rect id="Rectangle_10" data-name="Rectangle 10" width="10" height="20" transform="translate(23 407)" fill="#ffd89c"/>
      <rect id="Rectangle_11" data-name="Rectangle 11" width="10" height="20" transform="translate(113 407)" fill="#ffd89c"/>
      <rect id="Rectangle_12" data-name="Rectangle 12" width="10" height="20" transform="translate(113 427) rotate(90)" fill="#ffd89c"/>
      <rect id="Rectangle_13" data-name="Rectangle 13" width="10" height="20" transform="translate(53 427) rotate(90)" fill="#ffd89c"/>
      <rect id="Rectangle_14" data-name="Rectangle 14" width="10" height="40" transform="translate(93 437) rotate(90)" fill="#ffd89c"/>
    </g>
    <path id="Union_1" data-name="Union 1" d="M40,20V10H50V20ZM0,10V0H50V10Z" transform="translate(53 327)" fill="#ffdd80"/>
    <rect id="Rectangle_17" data-name="Rectangle 17" width="10" height="20" transform="translate(103 327)" fill="#ffd050"/>
    <rect id="Rectangle_18" data-name="Rectangle 18" width="10" height="60" transform="translate(113 347)" fill="#ffd050"/>
    <path id="Union_2" data-name="Union 2" d="M10,20H0V10H10V0H20V20Z" transform="translate(93 407)" fill="#ffd050"/>
    <rect id="Rectangle_21" data-name="Rectangle 21" width="40" height="10" transform="translate(53 427)" fill="#ffd050"/>
    <rect id="Rectangle_22" data-name="Rectangle 22" width="10" height="60" transform="translate(103 347)" fill="#ffdd80"/>
    <rect id="Rectangle_23" data-name="Rectangle 23" width="10" height="10" transform="translate(93 407)" fill="#ffdd80"/>
    <rect id="Rectangle_24" data-name="Rectangle 24" width="60" height="10" transform="translate(33 417)" fill="#ffdd80"/>
    <rect id="Rectangle_25" data-name="Rectangle 25" width="10" height="70" transform="translate(33 347)" fill="#ffdd80"/>
    <rect id="Rectangle_26" data-name="Rectangle 26" width="10" height="10" transform="translate(43 337)" fill="#ffdd80"/>
    <rect id="Rectangle_27" data-name="Rectangle 27" width="10" height="10" transform="translate(53 337)" fill="#ffebb5"/>
    <rect id="Rectangle_28" data-name="Rectangle 28" width="10" height="70" transform="translate(43 347)" fill="#ffebb5"/>
    <rect id="Rectangle_29" data-name="Rectangle 29" width="10" height="10" transform="translate(53 407)" fill="#ffebb5"/>
    <rect id="Rectangle_30" data-name="Rectangle 30" width="10" height="40" transform="translate(63 347)" fill="#ffebb5"/>
    <path id="Union_4" data-name="Union 4" d="M0,70V60H20V70ZM20,60V0H30V60ZM10,60H0V40H10V0H20V60Z" transform="translate(63 347)" fill="#ffdd80"/>
    <rect id="Rectangle_35" data-name="Rectangle 35" width="10" height="10" transform="translate(83 407)" fill="#ffebb5"/>
    <rect id="Rectangle_36" data-name="Rectangle 36" width="10" height="60" transform="translate(93 347)" fill="#ffebb5"/>
    <rect id="Rectangle_37" data-name="Rectangle 37" width="40" height="10" transform="translate(53 317)" fill="#fff7e1"/>
    <rect id="Rectangle_38" data-name="Rectangle 38" width="30" height="10" transform="translate(63 337)" fill="#fff7e1"/>
    <rect id="Rectangle_39" data-name="Rectangle 39" width="10" height="60" transform="translate(53 347)" fill="#fff7e1"/>
    <rect id="Rectangle_40" data-name="Rectangle 40" width="10" height="60" transform="translate(23 347)" fill="#fff7e1"/>
    <rect id="Rectangle_41" data-name="Rectangle 41" width="10" height="20" transform="translate(33 327)" fill="#fff7e1"/>
    <rect id="Rectangle_42" data-name="Rectangle 42" width="10" height="10" transform="translate(43 327)" fill="#fff7e1"/>
    <g id="Group_2" data-name="Group 2">
      <rect id="Rectangle_43" data-name="Rectangle 43" width="40" height="10" transform="translate(53 332)" fill="#ff691c"/>
      <rect id="Rectangle_44" data-name="Rectangle 44" width="10" height="10" transform="translate(93 342)" fill="#ff691c"/>
      <rect id="Rectangle_45" data-name="Rectangle 45" width="10" height="30" transform="translate(43 342)" fill="#ff691c"/>
      <rect id="Rectangle_46" data-name="Rectangle 46" width="40" height="10" transform="translate(53 372)" fill="#ff691c"/>
      <rect id="Rectangle_47" data-name="Rectangle 47" width="10" height="30" transform="translate(93 382)" fill="#ff691c"/>
      <rect id="Rectangle_48" data-name="Rectangle 48" width="40" height="10" transform="translate(53 412)" fill="#ff691c"/>
      <rect id="Rectangle_49" data-name="Rectangle 49" width="10" height="10" transform="translate(43 402)" fill="#ff691c"/>
      <rect id="Rectangle_50" data-name="Rectangle 50" width="10" height="110" transform="translate(68 322)" fill="#ff691c"/>
    </g>
  </g>
</svg>
